<svg width="135" height="89" viewBox="0 0 135 89" fill="none" xmlns="http://www.w3.org/2000/svg">
<path fill-rule="evenodd" clip-rule="evenodd" d="M54.5138 88.9999C59.0988 85.7056 62.0521 80.5386 62.0521 74.7294C62.0521 64.7799 53.389 56.7143 42.7025 56.7143C32.016 56.7143 23.3529 64.7799 23.3529 74.7294C23.3529 80.4969 26.2639 85.6314 30.7927 88.9287C27.006 85.91 24.6147 81.4754 24.6147 76.5322C24.6147 67.4367 32.711 60.0633 42.6982 60.0633C52.6855 60.0633 60.7818 67.4367 60.7818 76.5322C60.7818 81.5145 58.3525 85.98 54.5138 88.9999Z" fill="#FFD900"/>
<path fill-rule="evenodd" clip-rule="evenodd" d="M13.6152 35.363C12.1497 38.7211 11.3428 42.391 11.3428 46.2353C11.3428 47.216 11.3954 48.1853 11.4979 49.1409C16.6917 49.6863 20.7396 54.0791 20.7396 59.4174V62.6466C20.7396 63.9438 20.5006 65.1851 20.0642 66.329C20.8136 67.0526 21.603 67.7404 22.4292 68.3892C23.1829 58.6031 31.9716 50.8812 42.7025 50.8812C53.4335 50.8812 62.2221 58.6031 62.9758 68.3892C63.9776 67.6025 64.9253 66.7586 65.813 65.8629C65.4818 64.8506 65.3027 63.7695 65.3027 62.6466V59.4174C65.3027 54.3029 69.0183 50.0563 73.8975 49.2296C74.0064 48.2452 74.0622 47.2463 74.0622 46.2353C74.0622 42.391 73.2553 38.7211 71.7898 35.363H13.6152Z" fill="#FFD900"/>
<ellipse cx="59.3832" cy="44.7042" rx="10.0084" ry="7.3395" transform="rotate(-20 59.3832 44.7042)" fill="white"/>
<ellipse cx="59.3832" cy="44.7042" rx="10.0084" ry="7.3395" transform="rotate(-20 59.3832 44.7042)" fill="white"/>
<ellipse cx="25.3546" cy="44.7042" rx="10.0084" ry="7.3395" transform="rotate(20 25.3546 44.7042)" fill="white"/>
<ellipse cx="25.3546" cy="44.7042" rx="10.0084" ry="7.3395" transform="rotate(20 25.3546 44.7042)" fill="white"/>
<path fill-rule="evenodd" clip-rule="evenodd" d="M15.6881 9.70129L9.7102 13.3445H9.15054L6.33866 27.0227L0 33.3613H4.81656L0.177909 46.408L7.09331 48.8667L12.6062 33.3613H42.0353H42.7025H72.5577L78.0705 48.8667L84.986 46.408L80.3473 33.3613H84.7378L78.3992 27.0227L75.5873 13.3445H75.0703L70.1996 9.98797C67.0219 7.79808 63.4515 6.24188 59.6842 5.4047L56.2551 4.64268C54.7194 1.875 51.769 0 48.3815 0H37.6908C34.3929 0 31.5094 1.77706 29.9421 4.42481L22.7516 6.56253C20.2716 7.29982 17.8974 8.35483 15.6881 9.70129ZM35.2711 1.29168C34.0227 1.29168 33.0106 2.30372 33.0106 3.55213C33.0106 4.80054 34.0227 5.81257 35.2711 5.81257H50.1254C51.3738 5.81257 52.3859 4.80054 52.3859 3.55213C52.3859 2.30372 51.3738 1.29168 50.1254 1.29168H35.2711ZM52.7249 14.2085L50.7713 9.68762H47.2191V27.7712H54.3234V18.7294L52.7249 14.2085ZM63.6881 18.0836L67.773 20.5055L71.1153 22.9274V27.7712H56.2609V18.0836H63.6881ZM16.9776 20.5055L21.0626 18.0836H28.4897V27.7712H13.6354V22.9274L16.9776 20.5055ZM33.9794 9.68762L32.0257 14.2085L30.4273 18.7294V27.7712H37.5315V9.68762H33.9794Z" fill="#FFD900"/>
<path d="M86.4827 76.24C85.816 76.64 84.7093 77.1067 83.1627 77.64C81.6427 78.1467 79.856 78.4 77.8027 78.4C75.4827 78.4 73.536 77.92 71.9627 76.96C70.416 76 69.2427 74.68 68.4427 73C67.6427 71.32 67.2427 69.4 67.2427 67.24V61.52C67.2427 59.3067 67.6427 57.3733 68.4427 55.72C69.2427 54.04 70.4293 52.7333 72.0027 51.8C73.6027 50.8667 75.6027 50.4 78.0027 50.4C79.176 50.4 80.3893 50.5333 81.6427 50.8C82.896 51.04 84.2693 51.4933 85.7627 52.16L84.2827 56.36C82.976 55.8533 81.8427 55.4933 80.8827 55.28C79.9493 55.04 79.016 54.92 78.0827 54.92C76.0027 54.92 74.496 55.52 73.5627 56.72C72.6293 57.8933 72.1627 59.4933 72.1627 61.52V67.24C72.1627 69.16 72.6293 70.7333 73.5627 71.96C74.5227 73.1867 76.016 73.8 78.0427 73.8C78.656 73.8 79.3227 73.7467 80.0427 73.64C80.7627 73.5333 81.456 73.3867 82.1227 73.2V67.24H77.7227V63.04H86.4827V76.24ZM107.744 73.4V78H90.3442V73.8L101.704 55.4H90.7442V50.8H107.344V55L95.9842 73.4H107.744ZM130.936 76.24C130.269 76.64 129.162 77.1067 127.616 77.64C126.096 78.1467 124.309 78.4 122.256 78.4C119.936 78.4 117.989 77.92 116.416 76.96C114.869 76 113.696 74.68 112.896 73C112.096 71.32 111.696 69.4 111.696 67.24V61.52C111.696 59.3067 112.096 57.3733 112.896 55.72C113.696 54.04 114.882 52.7333 116.456 51.8C118.056 50.8667 120.056 50.4 122.456 50.4C123.629 50.4 124.842 50.5333 126.096 50.8C127.349 51.04 128.722 51.4933 130.216 52.16L128.736 56.36C127.429 55.8533 126.296 55.4933 125.336 55.28C124.402 55.04 123.469 54.92 122.536 54.92C120.456 54.92 118.949 55.52 118.016 56.72C117.082 57.8933 116.616 59.4933 116.616 61.52V67.24C116.616 69.16 117.082 70.7333 118.016 71.96C118.976 73.1867 120.469 73.8 122.496 73.8C123.109 73.8 123.776 73.7467 124.496 73.64C125.216 73.5333 125.909 73.3867 126.576 73.2V67.24H122.176V63.04H130.936V76.24Z" fill="#FFD900"/>
</svg>
